<svg data-v-423bf9ae="" xmlns="http://www.w3.org/2000/svg" viewBox="0 0 443 90" class="iconLeft"><!----><!----><!----><g data-v-423bf9ae="" id="a6bb6899-b6c6-46df-87bf-4c53d1f384f0" fill="#163530" transform="matrix(5.159071316387888,0,0,5.159071316387888,95.36123747665081,-3.779021801790087)"><path d="M9.73 8.67C9.73 5.54 7.81 3.64 5.25 3.64C2.60 3.64 0.66 5.50 0.66 8.60C0.66 11.72 2.51 13.66 5.25 13.66C5.78 13.66 6.29 13.58 6.75 13.43L9.06 15.27L9.62 14.63L7.63 13.02C8.90 12.22 9.73 10.72 9.73 8.67ZM8.81 8.68C8.81 11.51 7.08 12.84 5.24 12.84C3.09 12.84 1.60 11.35 1.60 8.54C1.60 5.92 3.23 4.48 5.24 4.48C7.15 4.48 8.81 5.89 8.81 8.68ZM17.35 13.50L17.35 6.51L16.51 6.51L16.51 10.23C16.51 10.89 16.41 11.41 16.13 11.86C15.85 12.31 15.19 12.85 14.25 12.85C13.52 12.85 13.08 12.63 12.78 12.32C12.50 12.01 12.32 11.47 12.32 10.54L12.32 6.51L11.45 6.51L11.45 10.65C11.45 11.69 11.63 12.36 11.94 12.78C12.33 13.33 13.02 13.66 13.96 13.66C15.22 13.66 16.16 13.02 16.51 12.14L16.51 13.50ZM25.93 13.48L25.84 12.78C25.72 12.81 25.58 12.82 25.41 12.82C25.19 12.82 25.02 12.74 24.91 12.53C24.81 12.36 24.79 12.05 24.79 11.69L24.79 9.30C24.79 8.72 24.79 8.22 24.65 7.76C24.37 6.78 23.58 6.33 22.23 6.33C20.27 6.33 19.29 7.22 19.29 8.83L20.10 8.88C20.16 7.29 21.21 7.13 22.18 7.13C23.24 7.13 23.62 7.60 23.80 7.98C23.90 8.20 23.97 8.71 23.97 9.20L23.97 9.49L23.14 9.49C21.46 9.49 20.51 9.69 19.92 10.01C19.33 10.33 19.01 10.88 19.01 11.62C19.01 12.84 19.89 13.66 21.50 13.66C22.53 13.66 23.58 13.27 24.01 12.36C24.07 13.06 24.30 13.58 25.21 13.58C25.42 13.58 25.72 13.55 25.93 13.48ZM23.97 10.18L23.97 10.89C23.97 11.17 23.90 11.61 23.73 11.91C23.48 12.35 22.79 12.92 21.63 12.92C20.75 12.92 19.85 12.57 19.85 11.56C19.85 11.00 20.19 10.63 20.68 10.46C21.20 10.28 22.02 10.18 23.16 10.18ZM27.97 13.50L27.97 9.95C27.97 9.14 28.06 8.60 28.31 8.15C28.57 7.67 29.12 7.13 29.96 7.13C30.20 7.13 30.45 7.17 30.66 7.22L30.83 6.43C30.59 6.36 30.28 6.30 30.03 6.30C28.87 6.30 28.15 7.11 27.97 7.94L27.97 6.51L27.13 6.51L27.13 13.50ZM32.77 13.50L32.77 10.74L33.88 9.69L36.64 13.50L37.66 13.50L34.48 9.09L37.18 6.51L36.05 6.51L32.77 9.72L32.77 3.82L31.93 3.82L31.93 13.50ZM46.90 10.25L45.98 10.12C45.72 11.80 44.73 12.84 42.78 12.84C40.43 12.84 39.33 10.98 39.33 8.69C39.33 6.61 40.29 4.48 42.92 4.48C44.81 4.48 45.77 5.70 45.93 7.01L46.84 6.90C46.72 5.38 45.54 3.64 42.94 3.64C39.72 3.64 38.39 6.17 38.39 8.71C38.39 11.61 40.00 13.66 42.78 13.66C45.25 13.66 46.59 12.33 46.90 10.25ZM49.24 13.50L49.24 9.90C49.24 9.16 49.34 8.58 49.62 8.13C49.90 7.69 50.57 7.14 51.53 7.14C52.22 7.14 52.67 7.34 52.95 7.64C53.23 7.95 53.42 8.47 53.42 9.45L53.42 13.50L54.29 13.50L54.29 9.35C54.29 8.23 54.11 7.62 53.82 7.21C53.40 6.64 52.72 6.34 51.77 6.34C50.54 6.34 49.53 7.03 49.24 7.90L49.24 3.82L48.40 3.82L48.40 13.50ZM62.97 13.48L62.89 12.78C62.76 12.81 62.62 12.82 62.45 12.82C62.23 12.82 62.06 12.74 61.95 12.53C61.85 12.36 61.84 12.05 61.84 11.69L61.84 9.30C61.84 8.72 61.84 8.22 61.70 7.76C61.42 6.78 60.62 6.33 59.28 6.33C57.32 6.33 56.34 7.22 56.34 8.83L57.15 8.88C57.20 7.29 58.25 7.13 59.22 7.13C60.28 7.13 60.66 7.60 60.84 7.98C60.94 8.20 61.01 8.71 61.01 9.20L61.01 9.49L60.19 9.49C58.51 9.49 57.55 9.69 56.97 10.01C56.38 10.33 56.06 10.88 56.06 11.62C56.06 12.84 56.94 13.66 58.55 13.66C59.57 13.66 60.62 13.27 61.05 12.36C61.11 13.06 61.35 13.58 62.26 13.58C62.47 13.58 62.76 13.55 62.97 13.48ZM61.01 10.18L61.01 10.89C61.01 11.17 60.94 11.61 60.77 11.91C60.52 12.35 59.84 12.92 58.67 12.92C57.79 12.92 56.90 12.57 56.90 11.56C56.90 11.00 57.23 10.63 57.72 10.46C58.24 10.28 59.07 10.18 60.20 10.18ZM67.37 13.44L67.19 12.73C66.99 12.81 66.64 12.89 66.29 12.89C65.77 12.89 65.51 12.67 65.39 12.32C65.32 12.08 65.31 11.70 65.31 11.20L65.31 7.24L67.09 7.24L67.09 6.51L65.31 6.51L65.31 4.62L64.46 4.62L64.46 6.51L63.36 6.51L63.36 7.24L64.46 7.24L64.46 11.27C64.46 11.84 64.47 12.26 64.58 12.68C64.78 13.38 65.39 13.66 66.09 13.66C66.61 13.66 67.06 13.57 67.37 13.44Z"></path></g><defs data-v-423bf9ae=""><linearGradient data-v-423bf9ae="" gradientTransform="rotate(25)" id="abfb0986-17a3-43e5-b2dd-94ad3d0660c2" x1="0%" y1="0%" x2="100%" y2="0%"><stop data-v-423bf9ae="" offset="0%" style="stop-color: rgb(2, 24, 2); stop-opacity: 1;"></stop><stop data-v-423bf9ae="" offset="100%" style="stop-color: rgb(96, 219, 204); stop-opacity: 1;"></stop></linearGradient></defs><g data-v-423bf9ae="" id="3b1e71f6-1242-42a7-928f-e49189fe2b25" transform="matrix(1.4056166135312143,0,0,1.4056166135312143,-30.291052337513705,-24.289400647235396)" stroke="none" fill="url(#abfb0986-17a3-43e5-b2dd-94ad3d0660c2)"><path d="M60 46a17.89 17.89 0 0 0-10.17 3.17L45 44.73A11.93 11.93 0 0 0 46 40c0-.39 0-.78-.06-1.16l13.48-6.29A8 8 0 1 0 56 25.3l-13.45 6.3a12 12 0 1 0-3 19l4.86 4.4A18 18 0 1 0 60 46zm-30-6a4 4 0 1 1 4 4 4 4 0 0 1-4-4zm30 34a10 10 0 1 1 10-10 10 10 0 0 1-10 10z"></path></g><!----></svg>